<svg width="128" height="128" viewBox="0 0 128 128" fill="none" xmlns="http://www.w3.org/2000/svg">
<g clip-path="url(#clip0_564_234)">
<path fill-rule="evenodd" clip-rule="evenodd" d="M30.1396 88.875H3.90909C2.25223 88.875 0.909088 87.5318 0.909088 85.875V52.0676C0.909088 50.4107 2.25223 49.0676 3.90909 49.0676H30.3495L67.8251 24.4702C70.4851 22.7243 74.02 24.6325 74.02 27.8143V110.266C74.02 113.448 70.4851 115.356 67.8251 113.61L30.1396 88.875Z" fill="#2563EB"/>
<path d="M88.6009 35.383C90.0559 33.9279 92.4269 33.9193 93.77 35.4784C97.2264 39.4906 100.03 44.0304 102.07 48.9308C104.587 54.979 105.891 61.4579 105.907 67.9978C105.923 74.5377 104.65 81.0105 102.162 87.0465C100.151 91.9259 97.3769 96.4428 93.9506 100.432C92.6033 102 90.2206 101.991 88.7584 100.529V100.529C87.2963 99.0672 87.3108 96.7065 88.6371 95.12C91.3827 91.8358 93.6158 88.1449 95.2538 84.1711C97.3687 79.0405 98.4503 73.5387 98.4369 67.9798C98.4234 62.4208 97.3152 56.9137 95.1755 51.7728C93.5135 47.7799 91.2546 44.0686 88.4825 40.764C87.1599 39.1875 87.1458 36.8381 88.6009 35.383V35.383Z" fill="#2563EB"/>
<path d="M103.046 18.9538C104.608 17.3917 107.149 17.3847 108.625 19.0288C114.186 25.2256 118.669 32.3222 121.873 40.0217C125.59 48.9528 127.516 58.5202 127.539 68.1774C127.562 77.8347 125.683 87.3929 122.009 96.3061C118.844 103.984 114.401 111.054 108.875 117.221C107.401 118.866 104.859 118.859 103.297 117.297L102.699 116.699C101.137 115.137 101.147 112.612 102.609 110.956C107.324 105.614 111.124 99.5177 113.848 92.9093C117.081 85.0657 118.735 76.6545 118.714 68.1561C118.694 59.6577 117 51.2384 113.728 43.379C110.97 36.7515 107.136 30.6315 102.389 25.2637C100.926 23.6087 100.916 21.0839 102.478 19.5218L103.046 18.9538Z" fill="#2563EB"/>
</g>
<defs>
<clipPath id="clip0_564_234">
<rect width="128" height="128" fill="white"/>
</clipPath>
</defs>
</svg>
