<svg width="100" height="125" viewBox="0 0 100 125" fill="none" xmlns="http://www.w3.org/2000/svg">
<rect y="12.5" width="100" height="17.5" rx="6.25" fill="#6B7380"/>
<rect y="12.5" width="100" height="17.5" rx="6.25" fill="#6B7380"/>
<rect y="12.5" width="100" height="17.5" rx="6.25" fill="#6B7380"/>
<path d="M32.5 6.25C32.5 2.79822 35.2982 0 38.75 0H61.25C64.7018 0 67.5 2.79822 67.5 6.25V12.5H32.5V6.25Z" fill="#6B7380"/>
<path d="M32.5 6.25C32.5 2.79822 35.2982 0 38.75 0H61.25C64.7018 0 67.5 2.79822 67.5 6.25V12.5H32.5V6.25Z" fill="#6B7380"/>
<path d="M32.5 6.25C32.5 2.79822 35.2982 0 38.75 0H61.25C64.7018 0 67.5 2.79822 67.5 6.25V12.5H32.5V6.25Z" fill="#6B7380"/>
<path fill-rule="evenodd" clip-rule="evenodd" d="M7.08228 38.75C3.32208 38.75 0.413155 42.0463 0.880811 45.7773L10.1248 119.527C10.5168 122.654 13.1751 125 16.3263 125H83.6737C86.8249 125 89.4832 122.654 89.8751 119.527L99.1192 45.7773C99.5868 42.0463 96.6779 38.75 92.9177 38.75H7.08228ZM22.4134 107.151C22.624 109.558 24.746 111.339 27.1531 111.128C29.5601 110.918 31.3407 108.796 31.1301 106.389L26.3366 51.5981C26.126 49.191 24.004 47.4105 21.5969 47.621C19.1898 47.8316 17.4093 49.9537 17.6199 52.3607L22.4134 107.151ZM71.5969 111.128C69.1898 110.918 67.4093 108.796 67.6199 106.388L72.4134 51.5978C72.624 49.1907 74.746 47.4101 77.1531 47.6207C79.5601 47.8313 81.3407 49.9533 81.1301 52.3604L76.3365 107.151C76.126 109.558 74.0039 111.339 71.5969 111.128ZM45 106.875C45 109.291 46.9588 111.25 49.375 111.25C51.7912 111.25 53.75 109.291 53.75 106.875V51.8748C53.75 49.4585 51.7912 47.4998 49.375 47.4998C46.9588 47.4998 45 49.4585 45 51.8748V106.875Z" fill="#6B7380"/>
</svg>
