<svg width="121" height="81" viewBox="0 0 121 81" fill="none" xmlns="http://www.w3.org/2000/svg">
<g clip-path="url(#clip0_570_281)">
<path fill-rule="evenodd" clip-rule="evenodd" d="M5 0C2.23857 0 0 2.23858 0 5.00001V15.667V33.6667V72.3466L18.7803 36.7985C19.473 35.4874 20.8342 34.667 22.317 34.667H107.826V15.667C107.826 12.9056 105.588 10.667 102.826 10.667H40.5047L35.8116 2.50716C34.9195 0.956119 33.2666 0 31.4773 0H5Z" fill="black"/>
<path d="M22.2334 40.7866C22.9282 39.4821 24.2858 38.667 25.7639 38.667H117.338C120.356 38.667 122.287 41.883 120.868 44.5474L103.114 77.8807C102.42 79.1852 101.062 80.0003 99.584 80.0003H8.01025C4.99156 80.0003 3.06071 76.7843 4.47977 74.12L22.2334 40.7866Z" fill="black"/>
</g>
<defs>
<clipPath id="clip0_570_281">
<rect width="121" height="81" fill="white"/>
</clipPath>
</defs>
</svg>
