<svg width="128" height="128" viewBox="0 0 128 128" fill="none" xmlns="http://www.w3.org/2000/svg">
<rect y="15" width="128" height="97" rx="5" fill="#2563EB"/>
<path d="M45.1762 47C46.7158 44.3333 50.5649 44.3333 52.1045 47L80.3718 95.9605C81.9114 98.6272 79.9869 101.961 76.9077 101.961H20.373C17.2938 101.961 15.3693 98.6272 16.9089 95.9605L45.1762 47Z" fill="white"/>
<path d="M45.1762 47C46.7158 44.3333 50.5649 44.3333 52.1045 47L80.3718 95.9605C81.9114 98.6272 79.9869 101.961 76.9077 101.961H20.373C17.2938 101.961 15.3693 98.6272 16.9089 95.9605L45.1762 47Z" fill="white"/>
<path d="M45.1762 47C46.7158 44.3333 50.5649 44.3333 52.1045 47L80.3718 95.9605C81.9114 98.6272 79.9869 101.961 76.9077 101.961H20.373C17.2938 101.961 15.3693 98.6272 16.9089 95.9605L45.1762 47Z" fill="white"/>
<path d="M84.5076 66.4069C86.0957 64.0796 89.5279 64.0796 91.1159 66.4069L111.107 95.7055C112.919 98.3606 111.017 101.96 107.803 101.96H67.8207C64.6064 101.96 62.7049 98.3606 64.5166 95.7055L84.5076 66.4069Z" fill="white"/>
<path d="M84.5076 66.4069C86.0957 64.0796 89.5279 64.0796 91.1159 66.4069L111.107 95.7055C112.919 98.3606 111.017 101.96 107.803 101.96H67.8207C64.6064 101.96 62.7049 98.3606 64.5166 95.7055L84.5076 66.4069Z" fill="white"/>
<path d="M84.5076 66.4069C86.0957 64.0796 89.5279 64.0796 91.1159 66.4069L111.107 95.7055C112.919 98.3606 111.017 101.96 107.803 101.96H67.8207C64.6064 101.96 62.7049 98.3606 64.5166 95.7055L84.5076 66.4069Z" fill="white"/>
<circle cx="89" cy="41" r="10" fill="white"/>
</svg>
