<?xml version="1.0" encoding="UTF-8" standalone="no"?>
<svg
   xmlns:dc="http://purl.org/dc/elements/1.1/"
   xmlns:cc="http://creativecommons.org/ns#"
   xmlns:rdf="http://www.w3.org/1999/02/22-rdf-syntax-ns#"
   xmlns:svg="http://www.w3.org/2000/svg"
   xmlns="http://www.w3.org/2000/svg"
   xmlns:sodipodi="http://sodipodi.sourceforge.net/DTD/sodipodi-0.dtd"
   xmlns:inkscape="http://www.inkscape.org/namespaces/inkscape"
   version="1.1"
   id="svg2"
   xml:space="preserve"
   width="2560"
   height="715.45331"
   viewBox="0 0 2560 715.45331"
   sodipodi:docname="linear_logo.ai"><metadata
     id="metadata8"><rdf:RDF><cc:Work
         rdf:about=""><dc:format>image/svg+xml</dc:format><dc:type
           rdf:resource="http://purl.org/dc/dcmitype/StillImage" /></cc:Work></rdf:RDF></metadata><defs
     id="defs6"><clipPath
       clipPathUnits="userSpaceOnUse"
       id="clipPath22"><path
         d="M 0,536.59 H 1920 V 0 H 0 Z"
         id="path20" /></clipPath></defs><sodipodi:namedview
     pagecolor="#ffffff"
     bordercolor="#666666"
     borderopacity="1"
     objecttolerance="10"
     gridtolerance="10"
     guidetolerance="10"
     inkscape:pageopacity="0"
     inkscape:pageshadow="2"
     inkscape:window-width="640"
     inkscape:window-height="480"
     id="namedview4" /><g
     id="g10"
     inkscape:groupmode="layer"
     inkscape:label="linear_logo"
     transform="matrix(1.3333333,0,0,-1.3333333,0,715.45333)"><g
       id="g12"
       transform="translate(1357.4285,196.5012)"><path
         d="M 0,0 H 34.333 L 16.96,126.949 Z"
         style="fill:#4266af;fill-opacity:1;fill-rule:nonzero;stroke:none"
         id="path14" /></g><g
       id="g16"><g
         id="g18"
         clip-path="url(#clipPath22)"><g
           id="g24"
           transform="translate(1789.647,43.203)"><path
             d="m 0,0 c -39.993,0 -67.86,14.135 -79.573,40.799 -5.66,12.523 -7.675,25.45 -7.675,46.857 v 7.271 2.83 h 66.249 v -2.83 -4.845 c 0,-24.644 6.053,-33.934 21.402,-33.934 11.722,0 20.094,8.082 20.203,19.392 0.187,19.427 -26.905,38.897 -42.827,48.654 -11.633,7.129 -23.046,14.606 -33.642,23.202 -19.113,15.504 -28.564,28.829 -28.564,54.579 0,47.667 31.109,75.136 84.427,75.136 52.923,0 81.999,-27.066 81.999,-75.942 0,-2.02 0,-4.849 -0.403,-8.888 H 16.567 c 0.403,2.422 0.403,4.849 0.403,6.058 0,15.756 -5.257,23.028 -16.97,23.028 -9.689,0 -15.752,-5.655 -15.752,-14.14 0,-8.485 5.248,-17.296 21.412,-28.204 0,0 47.125,-26.563 69.596,-59.424 C 82.193,109.456 89.271,95.33 89.271,80.384 89.271,29.086 56.559,0 0,0 m -204.396,0 c -39.993,0 -67.86,14.135 -79.573,40.799 -5.66,12.523 -7.675,25.45 -7.675,46.857 v 7.271 2.83 h 66.249 v -2.83 -4.845 c 0,-24.644 6.054,-33.934 21.402,-33.934 11.723,0 20.203,8.081 20.203,19.392 0,28.921 -45.287,60.793 -58.137,73.642 -29.588,29.588 -46.896,58.988 -46.896,91.174 0,47.667 31.11,75.136 84.427,75.136 52.924,0 82,-27.066 82,-75.942 0,-2.019 0,-4.849 -0.403,-8.888 h -65.03 c 0.403,2.422 0.403,4.849 0.403,6.058 0,15.756 -5.257,23.028 -16.97,23.028 -9.689,0 -15.751,-5.655 -15.751,-14.14 0,-6.788 3.162,-19.868 11.747,-28.453 10.943,-10.944 23.873,-21.592 31.593,-27.712 5.041,-3.996 9.982,-8.063 14.567,-12.578 10.108,-9.956 47.115,-41.364 47.115,-96.481 C -115.125,29.086 -147.836,0 -204.396,0 m -176.798,4.039 -10.907,96.747 H -436.36 L -447.267,4.039 h -71 l 56.963,345.796 h 91.699 L -311.031,4.039 Z m -158.894,0 h -150.675 v 384.177 h 68.666 V 60.594 h 82.009 z m -176.915,320.355 h -69.883 c -0.403,2.83 -0.403,4.85 -0.403,6.063 0,32.314 -5.651,43.624 -21.815,43.624 -16.96,0 -24.634,-14.543 -24.634,-46.857 V 98.966 c 0,-29.489 7.271,-42.818 23.829,-42.818 16.969,0 22.62,12.12 22.62,47.264 v 4.039 h 70.286 v -5.253 c 0,-28.678 -2.427,-45.24 -8.883,-59.783 C -738.011,14.946 -767.499,0 -809.104,0 c -41.201,0 -67.86,12.926 -82.806,39.988 -8.489,15.354 -10.504,25.45 -10.504,55.75 v 234.719 c 0,37.969 2.427,49.279 14.543,66.652 5.65,8.077 12.922,14.946 21.411,20.198 14.131,8.883 33.125,13.329 55.745,13.329 37.163,0 65.029,-11.713 78.766,-32.721 10.907,-16.966 14.543,-33.125 14.946,-66.249 z M -943.496,495.508 V -41.082 H 130.353 v 334.734 z"
             style="fill:#4266af;fill-opacity:1;fill-rule:nonzero;stroke:none"
             id="path26" /></g><g
           id="g28"
           transform="translate(147.8475,107.6152)"><path
             d="m 0,0 h -78.769 v 56.148 h 69.071 v 54.128 h -69.071 v 45.648 H 0 v 56.554 H -147.848 V -56.555 l 147.848,0 z"
             style="fill:#4266af;fill-opacity:1;fill-rule:nonzero;stroke:none"
             id="path30" /></g><g
           id="g32"
           transform="translate(274.2837,51.0607)"><path
             d="m 0,0 c 41.605,0 71.095,14.946 83.22,42.415 6.456,14.543 8.883,31.105 8.883,59.783 v 5.252 H 21.814 v -4.039 c 0,-35.143 -5.65,-47.263 -22.62,-47.263 -16.567,0 -23.829,13.329 -23.829,42.817 V 212.08 c 0,32.314 7.675,46.856 24.635,46.856 16.164,0 21.814,-11.309 21.814,-43.623 0,-1.214 0,-3.233 0.403,-6.063 h 69.886 v 7.272 c -0.403,33.124 -4.039,49.283 -14.946,66.248 -13.737,21.008 -41.606,32.721 -78.769,32.721 -22.62,0 -41.604,-4.446 -55.744,-13.329 -8.49,-5.252 -15.761,-12.121 -21.412,-20.198 -12.116,-17.373 -14.543,-28.682 -14.543,-66.651 V 95.738 c 0,-30.3 2.015,-40.396 10.505,-55.75 C -67.861,12.926 -41.202,0 0,0"
             style="fill:#4266af;fill-opacity:1;fill-rule:nonzero;stroke:none"
             id="path34" /></g><g
           id="g36"
           transform="translate(467.7757,190.1264)"><path
             d="m 0,0 h 42.41 v -139.066 h 68.679 V 206.729 H 42.41 V 75.741 H -0.412 V 206.729 H -68.676 V -139.066 H 0 Z"
             style="fill:#4266af;fill-opacity:1;fill-rule:nonzero;stroke:none"
             id="path38" /></g><g
           id="g40"
           transform="translate(688.3295,345.1546)"><path
             d="M 0,0 C 0,29.489 6.859,41.604 24.232,41.604 41.203,41.604 48.071,29.489 48.071,0 v -195.935 c 0,-29.891 -6.868,-41.609 -23.839,-41.609 C 6.859,-237.544 0,-225.826 0,-195.935 Z m 25.038,-294.094 c 60.601,0 91.701,30.697 91.701,90.485 V 8.077 c 0,59.38 -31.1,90.082 -91.701,90.082 -63.419,0 -93.714,-29.086 -93.714,-90.082 v -212.089 c 0,-60.997 30.295,-90.082 93.714,-90.082"
             style="fill:#4266af;fill-opacity:1;fill-rule:nonzero;stroke:none"
             id="path42" /></g></g></g></g></svg>
