<svg width="123" height="136" viewBox="0 0 123 136" fill="none" xmlns="http://www.w3.org/2000/svg">
<path fill-rule="evenodd" clip-rule="evenodd" d="M18 8H73C78.5229 8 83 12.4772 83 18V38H91V18C91 8.05888 82.9411 0 73 0H18C8.05888 0 0 8.05887 0 18V102C0 111.941 8.05887 120 18 120H73C82.9411 120 91 111.941 91 102V81H83V102C83 107.523 78.5229 112 73 112H18C12.4772 112 8 107.523 8 102V18C8 12.4772 12.4772 8 18 8Z" fill="#ef4444"/>
<rect x="72" y="55" width="45" height="10" rx="5" fill="#ef4444"/>
<path d="M118.883 56.8304C120.963 58.4316 120.963 61.5684 118.883 63.1696L106.94 72.363C104.31 74.3878 100.5 72.5127 100.5 69.1934V50.8066C100.5 47.4873 104.31 45.6122 106.94 47.637L118.883 56.8304Z" fill="#ef4444"/>
<path fill-rule="evenodd" clip-rule="evenodd" d="M19.9383 0.977512C13.5083 -0.999036 7 3.80918 7 10.5361V110.1C7 113.998 9.26497 117.541 12.803 119.177L45.803 134.436C52.4298 137.5 60 132.66 60 125.359V20.6802C60 16.2891 57.1355 12.4118 52.9383 11.1216L19.9383 0.977512Z" fill="#ef4444"/>
</svg>
