<svg width="120" height="103" viewBox="0 0 120 103" fill="none" xmlns="http://www.w3.org/2000/svg">
<g clip-path="url(#clip0_572_295)">
<path fill-rule="evenodd" clip-rule="evenodd" d="M20.7688 73.7295L51.922 88.296V100.001C51.922 101.658 50.5788 103.001 48.922 103.001H23.7688C22.1119 103.001 20.7688 101.658 20.7688 100.001V73.7295Z" fill="black"/>
<path fill-rule="evenodd" clip-rule="evenodd" d="M21.3083 25.8713V61.3355L75.8232 86.8255C78.4754 88.0656 81.5175 86.1298 81.5175 83.2021V4.00478C81.5175 1.07701 78.4754 -0.858779 75.8232 0.38132L21.3083 25.8713Z" fill="black"/>
<path fill-rule="evenodd" clip-rule="evenodd" d="M12.4612 25.9434H3C1.34315 25.9434 0 27.2865 0 28.9434V58.2653C0 59.9222 1.34315 61.2653 3 61.2653H12.4612V25.9434Z" fill="black"/>
<rect x="97.6132" y="40.8369" width="22.3868" height="7.46544" rx="3.73272" fill="black"/>
<rect width="22.3915" height="7.46385" rx="3.73192" transform="matrix(0.706956 -0.707258 0.706956 0.707258 97.6132 23.0801)" fill="black"/>
<rect width="22.3915" height="7.46385" rx="3.73192" transform="matrix(0.706956 0.707258 -0.706956 0.707258 102.89 59.501)" fill="black"/>
</g>
<defs>
<clipPath id="clip0_572_295">
<rect width="120" height="103" fill="white"/>
</clipPath>
</defs>
</svg>
