<svg width="101" height="128" viewBox="0 0 101 128" fill="none" xmlns="http://www.w3.org/2000/svg">
<path fill-rule="evenodd" clip-rule="evenodd" d="M16.8333 3.86914H8C3.58172 3.86914 0 7.45086 0 11.8691V119.692C0 124.11 3.58172 127.692 8 127.692H93C97.4183 127.692 101 124.11 101 119.692V11.8691C101 7.45086 97.4183 3.86914 93 3.86914H85.4616V15.2166C85.4616 19.6349 81.8798 23.2166 77.4616 23.2166H24.8333C20.4151 23.2166 16.8333 19.6349 16.8333 15.2166V3.86914Z" fill="black"/>
<rect x="21.927" width="58.042" height="18.0575" rx="5" fill="black"/>
<rect x="12.8982" y="49.3057" width="5.2355" height="15.0062" rx="2.61775" transform="rotate(-45 12.8982 49.3057)" fill="white"/>
<rect x="38.8621" y="37.4062" width="5.2355" height="26.5976" rx="2.61775" transform="rotate(45 38.8621 37.4062)" fill="white"/>
<rect x="50.3031" y="47.7236" width="37.4048" height="5.15929" rx="2.57964" fill="white"/>
<rect x="12.8982" y="71.2305" width="5.2355" height="15.0062" rx="2.61775" transform="rotate(-45 12.8982 71.2305)" fill="white"/>
<rect x="38.8621" y="59.3311" width="5.2355" height="26.5976" rx="2.61775" transform="rotate(45 38.8621 59.3311)" fill="white"/>
<rect x="50.3031" y="69.6494" width="37.4048" height="5.15929" rx="2.57964" fill="white"/>
<rect x="12.8982" y="93.1572" width="5.2355" height="15.0062" rx="2.61775" transform="rotate(-45 12.8982 93.1572)" fill="white"/>
<rect x="38.8621" y="81.2578" width="5.2355" height="26.5976" rx="2.61775" transform="rotate(45 38.8621 81.2578)" fill="white"/>
<rect x="50.3031" y="91.5762" width="37.4048" height="5.15929" rx="2.57964" fill="white"/>
</svg>
